<svg width="68" height="69" viewBox="0 0 68 69" fill="none" xmlns="http://www.w3.org/2000/svg">
<path opacity="0.21" fill-rule="evenodd" clip-rule="evenodd" d="M0.163574 34.6851V45.3928C0.163574 58.0953 10.461 68.3928 23.1636 68.3928H33.8712H44.5789C57.2815 68.3928 67.5789 58.0953 67.5789 45.3927V34.6851V23.9774C67.5789 11.2749 57.2814 0.977432 44.5789 0.977432H33.8712H23.1636C10.461 0.977432 0.163574 11.2749 0.163574 23.9774V34.6851Z" fill="#4AD991"/>
<path d="M21.637 46.9197H47.854C48.8193 46.9197 49.6018 47.7022 49.6018 48.6675C49.6018 49.6328 48.8193 50.4153 47.854 50.4153H19.8892C18.9239 50.4153 18.1414 49.6328 18.1414 48.6675V20.7026C18.1414 19.7374 18.9239 18.9548 19.8892 18.9548C20.8544 18.9548 21.637 19.7374 21.637 20.7026V46.9197Z" fill="#4AD991"/>
<path opacity="0.5" d="M28.1547 39.3761C27.4945 40.0803 26.3885 40.116 25.6843 39.4558C24.98 38.7956 24.9444 37.6895 25.6046 36.9853L32.1588 29.9941C32.7973 29.313 33.8583 29.2539 34.5684 29.8599L39.7415 34.2743L46.4815 25.7369C47.0796 24.9793 48.1787 24.85 48.9363 25.4481C49.694 26.0463 49.8233 27.1453 49.2251 27.903L41.36 37.8654C40.7457 38.6436 39.6078 38.7555 38.8537 38.112L33.5682 33.6017L28.1547 39.3761Z" fill="#4AD991"/>
</svg>
