<svg width="68" height="69" viewBox="0 0 68 69" fill="none" xmlns="http://www.w3.org/2000/svg">
<path opacity="0.21" fill-rule="evenodd" clip-rule="evenodd" d="M0.0751953 34.6851V45.3928C0.0751953 58.0953 10.3727 68.3928 23.0752 68.3928H33.7829H44.4905C57.1931 68.3928 67.4905 58.0953 67.4905 45.3927V34.6851V23.9774C67.4905 11.2749 57.1931 0.977432 44.4905 0.977432H33.7829H23.0752C10.3726 0.977432 0.0751953 11.2749 0.0751953 23.9774V34.6851Z" fill="#FEC53D"/>
<path fill-rule="evenodd" clip-rule="evenodd" d="M16.9287 28.2991L31.4236 36.6677C31.5796 36.7579 31.7433 36.823 31.9099 36.8643V53.0948L17.9625 44.8407C17.3217 44.4615 16.9287 43.7722 16.9287 43.0276V28.2991ZM50.6363 28.0767V43.0276C50.6363 43.7722 50.2433 44.4615 49.6025 44.8407L35.6551 53.0948V36.7221C35.6891 36.7051 35.7227 36.687 35.7561 36.6678L50.6363 28.0767Z" fill="#FEC53D"/>
<path opacity="0.499209" fill-rule="evenodd" clip-rule="evenodd" d="M17.3838 24.2373C17.5608 24.0137 17.7843 23.8248 18.0448 23.686L32.7919 15.8314C33.411 15.5017 34.1536 15.5017 34.7727 15.8314L49.5198 23.686C49.7206 23.793 49.8994 23.9298 50.0519 24.0893L33.8833 33.4242C33.777 33.4856 33.679 33.5558 33.5897 33.6335C33.5003 33.5558 33.4023 33.4856 33.296 33.4242L17.3838 24.2373Z" fill="#FEC53D"/>
</svg>
