<svg width="69" height="69" viewBox="0 0 69 69" fill="none" xmlns="http://www.w3.org/2000/svg">
<g id="Icon">
<path id="Circle 2" opacity="0.21" fill-rule="evenodd" clip-rule="evenodd" d="M0.987549 34.6851V54.3928C0.987549 62.1247 7.25557 68.3928 14.9876 68.3928H34.6952H54.4029C62.1349 68.3928 68.4029 62.1247 68.4029 54.3928V34.6851V14.9774C68.4029 7.24544 62.1349 0.977432 54.4029 0.977432H34.6952H14.9875C7.25556 0.977432 0.987549 7.24545 0.987549 14.9774V34.6851Z" fill="#8280FF"/>
<g id="Group">
<path id="Combined Shape" opacity="0.587821" fill-rule="evenodd" clip-rule="evenodd" d="M24.2083 27.1945C24.2083 30.5041 26.8912 33.187 30.2007 33.187C33.5103 33.187 36.1932 30.5041 36.1932 27.1945C36.1932 23.885 33.5103 21.202 30.2007 21.202C26.8912 21.202 24.2083 23.885 24.2083 27.1945ZM39.1899 33.187C39.1899 35.6691 41.2021 37.6813 43.6843 37.6813C46.1665 37.6813 48.1786 35.6691 48.1786 33.187C48.1786 30.7048 46.1665 28.6926 43.6843 28.6926C41.2021 28.6926 39.1899 30.7048 39.1899 33.187Z" fill="#8280FF"/>
<path id="Combined Shape_2" fill-rule="evenodd" clip-rule="evenodd" d="M30.1761 36.1832C23.1029 36.1832 17.2997 39.8184 16.719 46.9685C16.6874 47.358 17.4322 48.1682 17.8079 48.1682H42.5556C43.681 48.1682 43.6985 47.2625 43.681 46.9697C43.242 39.6187 37.3489 36.1832 30.1761 36.1832ZM51.8578 48.1682H46.0816V48.1681C46.0816 44.796 44.9675 41.6841 43.0872 39.1804C48.1903 39.2363 52.357 41.8165 52.6706 47.2693C52.6832 47.4889 52.6706 48.1682 51.8578 48.1682Z" fill="#8280FF"/>
</g>
</g>
</svg>
