<svg width="68" height="69" viewBox="0 0 68 69" fill="none" xmlns="http://www.w3.org/2000/svg">
<path opacity="0.3" fill-rule="evenodd" clip-rule="evenodd" d="M0.251465 34.6851V45.3927C0.251465 58.0953 10.5489 68.3927 23.2515 68.3927H33.9591H44.6668C57.3693 68.3927 67.6668 58.0953 67.6668 45.3927V34.6851V23.9774C67.6668 11.2749 57.3693 0.977417 44.6668 0.977417H33.9591H23.2515C10.5489 0.977417 0.251465 11.2749 0.251465 23.9774V34.6851Z" fill="#FF9066"/>
<path opacity="0.78" fill-rule="evenodd" clip-rule="evenodd" d="M32.4259 27.6717C32.4459 27.4113 32.6631 27.2101 32.9244 27.2101H33.507C33.7639 27.2101 33.979 27.4047 34.0045 27.6603L34.7086 34.7007L39.7 37.553C39.8558 37.642 39.952 37.8077 39.952 37.9871V38.5404C39.952 38.8701 39.6385 39.1095 39.3204 39.0228L32.111 37.0566C31.8796 36.9935 31.7256 36.775 31.744 36.5359L32.4259 27.6717Z" fill="#FF9066"/>
<path opacity="0.901274" fill-rule="evenodd" clip-rule="evenodd" d="M25.7029 17.7196C25.4388 17.4049 24.9289 17.5254 24.8336 17.925L22.9505 25.8197C22.8728 26.1454 23.1309 26.4539 23.4651 26.4349L31.5865 25.9747C31.9974 25.9514 32.2058 25.4694 31.9412 25.1541L29.8379 22.6475C31.1468 22.2003 32.5346 21.9667 33.9597 21.9667C40.9925 21.9667 46.6937 27.6679 46.6937 34.7007C46.6937 41.7335 40.9925 47.4347 33.9597 47.4347C26.9269 47.4347 21.2257 41.7335 21.2257 34.7007C21.2257 33.52 21.3856 32.3637 21.6974 31.2523L18.8125 30.4431C18.4326 31.7972 18.2295 33.2252 18.2295 34.7007C18.2295 43.3882 25.2722 50.4309 33.9597 50.4309C42.6473 50.4309 49.69 43.3882 49.69 34.7007C49.69 26.0131 42.6473 18.9704 33.9597 18.9704C31.7745 18.9704 29.6933 19.416 27.8021 20.2213L25.7029 17.7196Z" fill="#FF9066"/>
</svg>
